<?xml version="1.0" ?><!DOCTYPE svg  PUBLIC '-//W3C//DTD SVG 1.1//EN'  'http://www.w3.org/Graphics/SVG/1.1/DTD/svg11.dtd'><svg enable-background="new 0 0 224.919 181.801" height="181.801px" id="Layer_1" version="1.1" viewBox="0 0 224.919 181.801" width="224.919px" xml:space="preserve" xmlns="http://www.w3.org/2000/svg" xmlns:xlink="http://www.w3.org/1999/xlink"><g><path d="M192.817,61.803V4.883c0-1.302-0.419-2.372-1.256-3.208c-0.838-0.838-1.906-1.256-3.209-1.256h-26.785   c-1.303,0-2.372,0.418-3.209,1.256c-0.838,0.836-1.256,1.906-1.256,3.208v27.204l-34.04-28.459C120.087,1.21,116.552,0,112.46,0   s-7.627,1.21-10.604,3.628L1.55,87.193c-0.93,0.743-1.442,1.743-1.535,2.999s0.232,2.349,0.977,3.279l8.649,10.323   c0.744,0.837,1.721,1.349,2.93,1.535c1.116,0.092,2.232-0.233,3.348-0.977l95.004-79.217c0.849-0.708,2.224-0.708,3.072,0   L209,104.354c0.744,0.65,1.721,0.977,2.93,0.977h0.419c1.209-0.187,2.186-0.698,2.93-1.535l8.648-10.323   c0.744-0.931,1.07-2.023,0.977-3.279c-0.092-1.256-0.604-2.256-1.533-2.999L192.817,61.803z" fill="#4F4F4E"/><path d="M191.281,101.817l-77.278-64.412c-0.852-0.703-2.234-0.703-3.086,0c0,0-66.268,54.807-77.22,63.979   c-0.847,0.71-1.534,2.189-1.538,3.294c-0.017,4.971-0.039,47.403-0.048,67.123c-0.002,5.522,4.473,10,9.996,10h140.711   c5.523,0,10-4.478,10-10v-66.703C192.817,103.993,192.13,102.524,191.281,101.817z M152.382,112.792l-20.021,17.133l5.764,27.344   c0.48,2.273-0.729,3.119-2.701,1.89l-22.963-14.331l-22.966,14.331c-1.971,1.229-3.18,0.384-2.701-1.89l5.766-27.344   l-20.021-17.133c-1.765-1.511-1.316-2.838,1.004-2.968l25.649-1.423l11.558-25.959c0.945-2.123,2.395-2.088,3.238,0.076   l10.081,25.883l27.31,1.436C153.697,109.959,154.147,111.281,152.382,112.792z" fill="#4F4F4E"/></g></svg>