<?xml version="1.0" ?><svg height="100" id="svg2" version="1.1" width="100" xmlns="http://www.w3.org/2000/svg" xmlns:cc="http://creativecommons.org/ns#" xmlns:dc="http://purl.org/dc/elements/1.1/" xmlns:inkscape="http://www.inkscape.org/namespaces/inkscape" xmlns:rdf="http://www.w3.org/1999/02/22-rdf-syntax-ns#" xmlns:sodipodi="http://sodipodi.sourceforge.net/DTD/sodipodi-0.dtd" xmlns:svg="http://www.w3.org/2000/svg"><defs id="defs4"><clipPath clipPathUnits="userSpaceOnUse" id="clipPath3801"><path d="M 90,50 C 90,72.09139 72.09139,90 50,90 27.90861,90 10,72.09139 10,50 10,27.90861 27.90861,10 50,10 72.09139,10 90,27.90861 90,50 z" id="path3803" style="fill:none;stroke:#000000;stroke-width:6;stroke-linecap:round;stroke-linejoin:round;stroke-miterlimit:4;stroke-opacity:1;stroke-dashoffset:0"/></clipPath></defs><g id="layer1" transform="translate(0,-952.36218)"><path d="m 43.466669,1017.3622 c 0,-4.4334 -4.433334,-10.7667 -8.866667,-17.1 l -0.168906,-0.2265 c -2.283734,-3.13589 -3.631093,-6.99739 -3.631093,-11.17353 0,-10.49341 8.506589,-19 18.999998,-19 10.493409,0 18.999998,8.50659 18.999998,19 0,3.57597 -0.987892,6.92114 -2.705648,9.77774 L 65,1000.2622 c -4.433333,6.3333 -8.866667,12.6667 -8.866667,17.1 z" id="path4060" style="fill:#71ae27;fill-opacity:1;stroke:#71ae27;stroke-width:1.80952358;stroke-linejoin:round;stroke-miterlimit:4;stroke-opacity:1;stroke-dasharray:none"/><path d="m 41.666667,1024.8622 c 0,-5.8334 -5.833334,-14.1667 -11.666667,-22.5 l -0.222245,-0.298 C 26.772841,997.93809 25,992.85717 25,987.36218 c 0,-13.80712 11.192882,-25 25,-25 13.807118,0 25,11.19288 25,25 0,4.70522 -1.299858,9.10684 -3.560064,12.86532 L 70,1002.3622 c -5.833333,8.3333 -11.666667,16.6667 -11.666667,22.5 z" id="path4039" style="fill:none;stroke:#000000;stroke-width:4;stroke-linejoin:round;stroke-miterlimit:4;stroke-opacity:1;stroke-dasharray:none"/><path d="m 41.666667,1030.3622 16.666666,0" id="path4050" style="color:#000000;fill:none;stroke:#000000;stroke-width:4;stroke-linecap:round;stroke-linejoin:miter;stroke-miterlimit:4;stroke-opacity:1;stroke-dasharray:none;stroke-dashoffset:0;marker:none;visibility:visible;display:inline;overflow:visible;enable-background:accumulate"/><path d="m 43.333333,1035.3622 13.333334,0" id="path4052" style="color:#000000;fill:none;stroke:#000000;stroke-width:4;stroke-linecap:round;stroke-linejoin:miter;stroke-miterlimit:4;stroke-opacity:1;stroke-dasharray:none;stroke-dashoffset:0;marker:none;visibility:visible;display:inline;overflow:visible;enable-background:accumulate"/><path d="m 44.166667,1040.3622 11.666666,0" id="path4054" style="color:#000000;fill:none;stroke:#000000;stroke-width:4;stroke-linecap:round;stroke-linejoin:miter;stroke-miterlimit:4;stroke-opacity:1;stroke-dasharray:none;stroke-dashoffset:0;marker:none;visibility:visible;display:inline;overflow:visible;enable-background:accumulate"/><path d="m 48.333333,1045.3622 3.333334,0" id="path4056" style="color:#000000;fill:none;stroke:#000000;stroke-width:4;stroke-linecap:round;stroke-linejoin:miter;stroke-miterlimit:4;stroke-opacity:1;stroke-dasharray:none;stroke-dashoffset:0;marker:none;visibility:visible;display:inline;overflow:visible;enable-background:accumulate"/><path d="M 48,1024.3622 41.529518,1000.214" id="path4058" style="color:#000000;fill:none;stroke:#000000;stroke-width:2;stroke-linecap:round;stroke-linejoin:miter;stroke-miterlimit:4;stroke-opacity:1;stroke-dasharray:none;stroke-dashoffset:0;marker:none;visibility:visible;display:inline;overflow:visible;enable-background:accumulate"/><path d="m 52,1024.3622 6.470482,-24.1482" id="path4062" style="color:#000000;fill:none;stroke:#000000;stroke-width:2;stroke-linecap:round;stroke-linejoin:miter;stroke-miterlimit:4;stroke-opacity:1;stroke-dasharray:none;stroke-dashoffset:0;marker:none;visibility:visible;display:inline;overflow:visible;enable-background:accumulate"/></g></svg>